<?xml version="1.0" encoding="UTF-8"?>
<svg id="Layer_1" xmlns="http://www.w3.org/2000/svg" viewBox="0 0 18.86 24">
  <defs>
    <style>
      .cls-1 {
        fill: #0f172a;
        fill-rule: evenodd;
      }
    </style>
  </defs>
  <path class="cls-1" d="M7.71,1.71c-.78,0-1.45.53-1.65,1.25-.04.15-.06.3-.06.47h6.86c0-.16-.02-.32-.06-.47-.2-.72-.87-1.25-1.65-1.25h-3.43ZM4.64,1.92c.56-1.14,1.73-1.92,3.08-1.92h3.43c1.35,0,2.52.78,3.08,1.92.57.05,1.13.11,1.7.17,1.71.2,2.94,1.67,2.94,3.35v15.13c0,1.89-1.53,3.43-3.43,3.43H3.43c-1.89,0-3.43-1.53-3.43-3.43V5.44c0-1.68,1.23-3.15,2.94-3.35.56-.07,1.13-.12,1.7-.17Z"/>
</svg>