<?xml version="1.0" encoding="UTF-8"?>
<svg id="Layer_1" xmlns="http://www.w3.org/2000/svg" viewBox="0 0 18.55 23.66">
  <defs>
    <style>
      .cls-1 {
        fill: none;
        stroke: #0f172a;
        stroke-linecap: round;
        stroke-linejoin: round;
        stroke-width: 1.5px;
      }
    </style>
  </defs>
  <path class="cls-1" d="M13.44,2.61c-.3-1.07-1.29-1.86-2.46-1.86h-3.41c-1.17,0-2.16.79-2.46,1.86M13.44,2.61c.06.22.1.45.1.7h0c0,.47-.38.85-.85.85h-6.82c-.47,0-.85-.38-.85-.85h0c0-.24.03-.47.1-.7M13.44,2.61c.73.06,1.46.13,2.19.21,1.25.15,2.17,1.22,2.17,2.48v15.05c0,1.41-1.14,2.56-2.56,2.56H3.31c-1.41,0-2.56-1.14-2.56-2.56V5.3c0-1.26.92-2.34,2.17-2.48.73-.08,1.46-.15,2.19-.21"/>
</svg>