<?xml version="1.0" encoding="UTF-8"?>
<svg xmlns="http://www.w3.org/2000/svg" version="1.1" viewBox="0 0 24 24">
  <defs>
    <style>
      .cls-1 {
        fill: #0f1115;
      }
    </style>
  </defs>
  <!-- Generator: Adobe Illustrator 28.6.0, SVG Export Plug-In . SVG Version: 1.2.0 Build 709)  -->
  <g>
    <g id="Layer_1">
      <g>
        <g>
          <path class="cls-1" d="M6,19.5c-.4,0-.8,0-1.1-.4-.6-.6-.6-1.7,0-2.3l11.9-11.9c.6-.6,1.7-.6,2.3,0s.6,1.7,0,2.3l-11.9,11.9c-.4.4-.8.4-1.1.4h-.1Z"/>
          <path class="cls-1" d="M18,19.5c-.4,0-.8,0-1.1-.4L5,7.2c-.6-.6-.6-1.7,0-2.3s1.7-.6,2.3,0l11.8,11.8c.6.6.7,1.7,0,2.4s-.8.4-1.1.4h0Z"/>
        </g>
        <path class="cls-1" d="M21,0H3C1.3,0,0,1.3,0,3h0v18h0c0,1.7,1.3,3,3,3h18c1.7,0,3-1.3,3-3h0V3h0c0-1.7-1.3-3-3-3h0ZM20,21H4c-.6,0-1-.4-1-1V4c0-.6.4-1,1-1h16c.6,0,1,.4,1,1v16c0,.6-.4,1-1,1Z"/>
      </g>
    </g>
  </g>
</svg>