<?xml version="1.0" encoding="UTF-8"?>
<svg xmlns="http://www.w3.org/2000/svg" version="1.1" viewBox="0 0 24 24">
  <defs>
    <style>
      .cls-1 {
        fill: #0f1115;
      }

      .cls-2 {
        fill: #1f2937;
      }
    </style>
  </defs>
  <!-- Generator: Adobe Illustrator 28.6.0, SVG Export Plug-In . SVG Version: 1.2.0 Build 709)  -->
  <g>
    <g id="Layer_1">
      <path class="cls-2" d="M21,0H3C1.3,0,0,1.4,0,3v18c0,1.7,1.3,3,3,3h18c1.7,0,3-1.3,3-3V3C24,1.4,22.7,0,21,0ZM17.9,19.4c-.4,0-.8,0-1.1-.4l-4.8-4.8-5.5,5.6c-1.9-.6-1.9-1.2-1.9-1.9,0-.4,0-.7.4-1.1l4.8-4.8-4.8-4.8c-.6-.6-.6-1.7,0-2.2.6-.6,1.7-.6,2.3,0l4.8,4.7,4.7-4.8c.6-.6,1.7-.6,2.3,0,.6.5.6,1.7,0,2.2l-4.8,4.8,5.6,5.6c-.6,1.8-1.3,1.8-1.9,1.8Z"/>
      <path class="cls-1" d="M39-.5"/>
    </g>
  </g>
</svg>