<?xml version="1.0" encoding="UTF-8"?>
<svg xmlns="http://www.w3.org/2000/svg" version="1.1" viewBox="0 0 24 24">
  <defs>
    <style>
      .cls-1 {
        fill: #1f2937;
      }

      .cls-2 {
        fill: #fff;
        stroke: #1f2937;
        stroke-miterlimit: 10;
        stroke-width: 2.4px;
      }
    </style>
  </defs>
  <!-- Generator: Adobe Illustrator 28.6.0, SVG Export Plug-In . SVG Version: 1.2.0 Build 709)  -->
  <g>
    <g id="Layer_1">
      <g>
        <circle class="cls-2" cx="12" cy="12" r="10.8"/>
        <path class="cls-1" d="M13.9,12l3.8-3.8c.5-.5.5-1.3,0-1.8h0c-.5-.6-1.3-.6-1.8,0l-3.8,3.8-3.8-3.8c-.5-.5-1.3-.5-1.8,0h0c-.5.6-.5,1.4,0,1.9l3.8,3.8-3.8,3.8c-.5.5-.5,1.3,0,1.8h0c.5.6,1.3.6,1.8,0l3.8-3.8,3.8,3.8c.5.5,1.3.5,1.8,0h0c.5-.6.5-1.4,0-1.9l-3.8-3.8Z"/>
      </g>
    </g>
  </g>
</svg>