<?xml version="1.0" encoding="UTF-8"?>
<svg xmlns="http://www.w3.org/2000/svg" version="1.1" viewBox="0 0 24 24">
  <defs>
    <style>
      .cls-1 {
        fill: #292d32;
      }
    </style>
  </defs>
  <!-- Generator: Adobe Illustrator 28.6.0, SVG Export Plug-In . SVG Version: 1.2.0 Build 709)  -->
  <g>
    <g id="Layer_1">
      <path class="cls-1" d="M9.2,15.6c-.2,0-.4,0-.5-.2-.3-.3-.3-.8,0-1.1l5.7-5.7c.3-.3.8-.3,1.1,0s.3.8,0,1.1l-5.7,5.7c-.1.2-.3.2-.5.2Z"/>
      <path class="cls-1" d="M14.8,15.6c-.2,0-.4,0-.5-.2l-5.7-5.7c-.3-.3-.3-.8,0-1.1.3-.3.8-.3,1.1,0l5.7,5.7c.3.3.3.8,0,1.1-.1.2-.3.2-.5.2Z"/>
      <path class="cls-1" d="M15,22.8h-6c-5.4,0-7.8-2.3-7.8-7.8v-6C1.2,3.6,3.6,1.2,9,1.2h6c5.4,0,7.8,2.3,7.8,7.8v6c0,5.4-2.3,7.8-7.8,7.8ZM9,2.8c-4.6,0-6.2,1.6-6.2,6.2v6c0,4.6,1.6,6.2,6.2,6.2h6c4.6,0,6.2-1.6,6.2-6.2v-6c0-4.6-1.6-6.2-6.2-6.2h-6Z"/>
    </g>
  </g>
</svg>